<mxfile host="app.diagrams.net" modified="2024-05-01T17:08:26.781Z" agent="Mozilla/5.0 (Windows NT 10.0; Win64; x64) AppleWebKit/537.36 (KHTML, like Gecko) Chrome/124.0.0.0 Safari/537.36 Edg/124.0.0.0" etag="i___7XawWI0ClZjJaVmD" version="24.2.0" type="device" pages="3">
  <diagram name="System Context" id="Dg1pjilhO1LQ-Ea2agUl">
    <mxGraphModel dx="1210" dy="716" grid="1" gridSize="10" guides="1" tooltips="1" connect="1" arrows="1" fold="1" page="1" pageScale="1" pageWidth="827" pageHeight="1169" math="0" shadow="0">
      <root>
        <mxCell id="0" />
        <mxCell id="1" parent="0" />
        <mxCell id="CRaX08vtiod-lqJV-oWH-1" value="" style="shape=actor;whiteSpace=wrap;html=1;" vertex="1" parent="1">
          <mxGeometry x="394" y="60" width="40" height="60" as="geometry" />
        </mxCell>
        <mxCell id="CRaX08vtiod-lqJV-oWH-2" value="Web Browser&lt;div&gt;(Client)&lt;/div&gt;" style="rounded=0;whiteSpace=wrap;html=1;" vertex="1" parent="1">
          <mxGeometry x="354" y="190" width="120" height="60" as="geometry" />
        </mxCell>
        <mxCell id="CRaX08vtiod-lqJV-oWH-3" value="ToDo App" style="rounded=0;whiteSpace=wrap;html=1;fillColor=#CCFF99;" vertex="1" parent="1">
          <mxGeometry x="336" y="350" width="156" height="80" as="geometry" />
        </mxCell>
        <mxCell id="CRaX08vtiod-lqJV-oWH-4" value="" style="endArrow=classic;html=1;rounded=0;exitX=0.5;exitY=1;exitDx=0;exitDy=0;entryX=0.5;entryY=0;entryDx=0;entryDy=0;" edge="1" parent="1" source="CRaX08vtiod-lqJV-oWH-2" target="CRaX08vtiod-lqJV-oWH-3">
          <mxGeometry width="50" height="50" relative="1" as="geometry">
            <mxPoint x="410" y="310" as="sourcePoint" />
            <mxPoint x="460" y="260" as="targetPoint" />
          </mxGeometry>
        </mxCell>
        <mxCell id="CRaX08vtiod-lqJV-oWH-8" value="Talks over HTTP" style="edgeLabel;html=1;align=center;verticalAlign=middle;resizable=0;points=[];" vertex="1" connectable="0" parent="CRaX08vtiod-lqJV-oWH-4">
          <mxGeometry x="-0.1267" relative="1" as="geometry">
            <mxPoint as="offset" />
          </mxGeometry>
        </mxCell>
        <mxCell id="CRaX08vtiod-lqJV-oWH-5" value="" style="endArrow=classic;html=1;rounded=0;exitX=0.5;exitY=1;exitDx=0;exitDy=0;entryX=0.5;entryY=0;entryDx=0;entryDy=0;" edge="1" parent="1" source="CRaX08vtiod-lqJV-oWH-1" target="CRaX08vtiod-lqJV-oWH-2">
          <mxGeometry width="50" height="50" relative="1" as="geometry">
            <mxPoint x="370" y="240" as="sourcePoint" />
            <mxPoint x="420" y="190" as="targetPoint" />
          </mxGeometry>
        </mxCell>
        <mxCell id="CRaX08vtiod-lqJV-oWH-7" value="Operates" style="edgeLabel;html=1;align=center;verticalAlign=middle;resizable=0;points=[];" vertex="1" connectable="0" parent="CRaX08vtiod-lqJV-oWH-5">
          <mxGeometry x="0.1333" y="-2" relative="1" as="geometry">
            <mxPoint as="offset" />
          </mxGeometry>
        </mxCell>
        <mxCell id="CRaX08vtiod-lqJV-oWH-6" value="User" style="text;html=1;align=center;verticalAlign=middle;resizable=0;points=[];autosize=1;strokeColor=none;fillColor=none;" vertex="1" parent="1">
          <mxGeometry x="389" y="28" width="50" height="30" as="geometry" />
        </mxCell>
        <mxCell id="CRaX08vtiod-lqJV-oWH-9" value="Trello API" style="rounded=0;whiteSpace=wrap;html=1;fillColor=#CCFFFF;" vertex="1" parent="1">
          <mxGeometry x="336" y="520" width="156" height="80" as="geometry" />
        </mxCell>
        <mxCell id="CRaX08vtiod-lqJV-oWH-10" value="" style="endArrow=classic;html=1;rounded=0;exitX=0.5;exitY=1;exitDx=0;exitDy=0;" edge="1" parent="1" source="CRaX08vtiod-lqJV-oWH-3" target="CRaX08vtiod-lqJV-oWH-9">
          <mxGeometry width="50" height="50" relative="1" as="geometry">
            <mxPoint x="370" y="540" as="sourcePoint" />
            <mxPoint x="420" y="490" as="targetPoint" />
          </mxGeometry>
        </mxCell>
        <mxCell id="CRaX08vtiod-lqJV-oWH-11" value="Via HTTP API" style="edgeLabel;html=1;align=center;verticalAlign=middle;resizable=0;points=[];" vertex="1" connectable="0" parent="CRaX08vtiod-lqJV-oWH-10">
          <mxGeometry x="0.0667" y="1" relative="1" as="geometry">
            <mxPoint as="offset" />
          </mxGeometry>
        </mxCell>
      </root>
    </mxGraphModel>
  </diagram>
  <diagram name="Container" id="AU62YKjd2CCxk7m5ElCM">
    <mxGraphModel dx="1210" dy="716" grid="1" gridSize="10" guides="1" tooltips="1" connect="1" arrows="1" fold="1" page="1" pageScale="1" pageWidth="827" pageHeight="1169" math="0" shadow="0">
      <root>
        <mxCell id="cBWCQejAJvEoLtN18rig-0" />
        <mxCell id="cBWCQejAJvEoLtN18rig-1" parent="cBWCQejAJvEoLtN18rig-0" />
        <mxCell id="cBWCQejAJvEoLtN18rig-3" value="Web Browser&lt;div&gt;(Client)&lt;/div&gt;" style="rounded=0;whiteSpace=wrap;html=1;" vertex="1" parent="cBWCQejAJvEoLtN18rig-1">
          <mxGeometry x="354" y="100" width="120" height="60" as="geometry" />
        </mxCell>
        <mxCell id="cBWCQejAJvEoLtN18rig-4" value="" style="rounded=0;whiteSpace=wrap;html=1;fillColor=#E6E6E6;" vertex="1" parent="cBWCQejAJvEoLtN18rig-1">
          <mxGeometry x="232" y="210" width="364" height="220" as="geometry" />
        </mxCell>
        <mxCell id="cBWCQejAJvEoLtN18rig-5" value="" style="endArrow=classic;html=1;rounded=0;exitX=0.5;exitY=1;exitDx=0;exitDy=0;entryX=0.5;entryY=0;entryDx=0;entryDy=0;" edge="1" parent="cBWCQejAJvEoLtN18rig-1" source="cBWCQejAJvEoLtN18rig-3" target="RJImc6bU2DJytMrbHKGd-1">
          <mxGeometry width="50" height="50" relative="1" as="geometry">
            <mxPoint x="410" y="310" as="sourcePoint" />
            <mxPoint x="460" y="260" as="targetPoint" />
          </mxGeometry>
        </mxCell>
        <mxCell id="cBWCQejAJvEoLtN18rig-6" value="Talks over HTTP" style="edgeLabel;html=1;align=center;verticalAlign=middle;resizable=0;points=[];" vertex="1" connectable="0" parent="cBWCQejAJvEoLtN18rig-5">
          <mxGeometry x="-0.1267" relative="1" as="geometry">
            <mxPoint as="offset" />
          </mxGeometry>
        </mxCell>
        <mxCell id="cBWCQejAJvEoLtN18rig-10" value="Trello API" style="rounded=0;whiteSpace=wrap;html=1;fillColor=#CCFFFF;" vertex="1" parent="cBWCQejAJvEoLtN18rig-1">
          <mxGeometry x="336" y="520" width="156" height="80" as="geometry" />
        </mxCell>
        <mxCell id="cBWCQejAJvEoLtN18rig-11" value="" style="endArrow=classic;html=1;rounded=0;exitX=0.5;exitY=1;exitDx=0;exitDy=0;" edge="1" parent="cBWCQejAJvEoLtN18rig-1" source="RJImc6bU2DJytMrbHKGd-2" target="cBWCQejAJvEoLtN18rig-10">
          <mxGeometry width="50" height="50" relative="1" as="geometry">
            <mxPoint x="370" y="540" as="sourcePoint" />
            <mxPoint x="420" y="490" as="targetPoint" />
          </mxGeometry>
        </mxCell>
        <mxCell id="cBWCQejAJvEoLtN18rig-12" value="Via HTTP API" style="edgeLabel;html=1;align=center;verticalAlign=middle;resizable=0;points=[];" vertex="1" connectable="0" parent="cBWCQejAJvEoLtN18rig-11">
          <mxGeometry x="0.0667" y="1" relative="1" as="geometry">
            <mxPoint as="offset" />
          </mxGeometry>
        </mxCell>
        <mxCell id="RJImc6bU2DJytMrbHKGd-0" value="ToDo App" style="whiteSpace=wrap;html=1;strokeColor=none;" vertex="1" parent="cBWCQejAJvEoLtN18rig-1">
          <mxGeometry x="190" y="160" width="60" height="30" as="geometry" />
        </mxCell>
        <mxCell id="RJImc6bU2DJytMrbHKGd-1" value="Flask Webserver" style="rounded=0;whiteSpace=wrap;html=1;fillColor=#FFFF99;" vertex="1" parent="cBWCQejAJvEoLtN18rig-1">
          <mxGeometry x="354" y="250" width="120" height="60" as="geometry" />
        </mxCell>
        <mxCell id="RJImc6bU2DJytMrbHKGd-2" value="ToDo Application Code&lt;div&gt;(Python WSGI App)&lt;/div&gt;" style="rounded=0;whiteSpace=wrap;html=1;fillColor=#CCFF99;" vertex="1" parent="cBWCQejAJvEoLtN18rig-1">
          <mxGeometry x="354" y="350" width="120" height="60" as="geometry" />
        </mxCell>
        <mxCell id="RJImc6bU2DJytMrbHKGd-3" value="Passes Request to" style="endArrow=classic;html=1;rounded=0;entryX=0.5;entryY=0;entryDx=0;entryDy=0;exitX=0.5;exitY=1;exitDx=0;exitDy=0;" edge="1" parent="cBWCQejAJvEoLtN18rig-1" source="RJImc6bU2DJytMrbHKGd-1" target="RJImc6bU2DJytMrbHKGd-2">
          <mxGeometry width="50" height="50" relative="1" as="geometry">
            <mxPoint x="390" y="320" as="sourcePoint" />
            <mxPoint x="440" y="270" as="targetPoint" />
          </mxGeometry>
        </mxCell>
      </root>
    </mxGraphModel>
  </diagram>
  <diagram name="Component" id="joFSuC9MEQBfRSXZCCX5">
    <mxGraphModel dx="1210" dy="716" grid="1" gridSize="10" guides="1" tooltips="1" connect="1" arrows="1" fold="1" page="1" pageScale="1" pageWidth="827" pageHeight="1169" math="0" shadow="0">
      <root>
        <mxCell id="wW0nBViKQH1OKMizj_yf-0" />
        <mxCell id="wW0nBViKQH1OKMizj_yf-1" parent="wW0nBViKQH1OKMizj_yf-0" />
        <mxCell id="wW0nBViKQH1OKMizj_yf-6" value="Trello API" style="rounded=0;whiteSpace=wrap;html=1;fillColor=#CCFFFF;" vertex="1" parent="wW0nBViKQH1OKMizj_yf-1">
          <mxGeometry x="374.5" y="630" width="156" height="80" as="geometry" />
        </mxCell>
        <mxCell id="wW0nBViKQH1OKMizj_yf-10" value="Flask Webserver" style="rounded=0;whiteSpace=wrap;html=1;fillColor=#FFFF99;" vertex="1" parent="wW0nBViKQH1OKMizj_yf-1">
          <mxGeometry x="392.5" y="70" width="120" height="60" as="geometry" />
        </mxCell>
        <mxCell id="wW0nBViKQH1OKMizj_yf-11" value="" style="rounded=0;whiteSpace=wrap;html=1;fillColor=#E6E6E6;" vertex="1" parent="wW0nBViKQH1OKMizj_yf-1">
          <mxGeometry x="170" y="220" width="565" height="350" as="geometry" />
        </mxCell>
        <mxCell id="wW0nBViKQH1OKMizj_yf-12" value="Passes Request to" style="endArrow=classic;html=1;rounded=0;exitX=0.5;exitY=1;exitDx=0;exitDy=0;entryX=0.5;entryY=0;entryDx=0;entryDy=0;" edge="1" parent="wW0nBViKQH1OKMizj_yf-1" source="wW0nBViKQH1OKMizj_yf-10" target="DvAtvgP_Mp4fu1iRh_zG-3">
          <mxGeometry width="50" height="50" relative="1" as="geometry">
            <mxPoint x="390" y="320" as="sourcePoint" />
            <mxPoint x="440" y="270" as="targetPoint" />
          </mxGeometry>
        </mxCell>
        <mxCell id="DvAtvgP_Mp4fu1iRh_zG-2" value="ToDo Application Code&lt;div&gt;(Python WSGI App)&lt;/div&gt;" style="whiteSpace=wrap;html=1;strokeColor=none;" vertex="1" parent="wW0nBViKQH1OKMizj_yf-1">
          <mxGeometry x="150" y="160" width="120" height="60" as="geometry" />
        </mxCell>
        <mxCell id="DvAtvgP_Mp4fu1iRh_zG-3" value="Webserver Routes&lt;div&gt;(app.py)&lt;/div&gt;" style="rounded=0;whiteSpace=wrap;html=1;" vertex="1" parent="wW0nBViKQH1OKMizj_yf-1">
          <mxGeometry x="392.5" y="250" width="120" height="60" as="geometry" />
        </mxCell>
        <mxCell id="DvAtvgP_Mp4fu1iRh_zG-4" value="HTML Templates" style="rounded=0;whiteSpace=wrap;html=1;" vertex="1" parent="wW0nBViKQH1OKMizj_yf-1">
          <mxGeometry x="220" y="250" width="120" height="60" as="geometry" />
        </mxCell>
        <mxCell id="DvAtvgP_Mp4fu1iRh_zG-17" style="edgeStyle=orthogonalEdgeStyle;rounded=0;orthogonalLoop=1;jettySize=auto;html=1;entryX=1;entryY=0.5;entryDx=0;entryDy=0;" edge="1" parent="wW0nBViKQH1OKMizj_yf-1" source="DvAtvgP_Mp4fu1iRh_zG-5" target="DvAtvgP_Mp4fu1iRh_zG-3">
          <mxGeometry relative="1" as="geometry">
            <Array as="points">
              <mxPoint x="550" y="380" />
              <mxPoint x="550" y="280" />
            </Array>
          </mxGeometry>
        </mxCell>
        <mxCell id="DvAtvgP_Mp4fu1iRh_zG-5" value="Data Classes&lt;div&gt;(Item/ ViewModel)&lt;/div&gt;" style="rounded=0;whiteSpace=wrap;html=1;" vertex="1" parent="wW0nBViKQH1OKMizj_yf-1">
          <mxGeometry x="580" y="350" width="120" height="60" as="geometry" />
        </mxCell>
        <mxCell id="DvAtvgP_Mp4fu1iRh_zG-6" value="Trello Client" style="rounded=0;whiteSpace=wrap;html=1;" vertex="1" parent="wW0nBViKQH1OKMizj_yf-1">
          <mxGeometry x="392.5" y="470" width="120" height="60" as="geometry" />
        </mxCell>
        <mxCell id="DvAtvgP_Mp4fu1iRh_zG-10" style="edgeStyle=orthogonalEdgeStyle;rounded=0;orthogonalLoop=1;jettySize=auto;html=1;exitX=1;exitY=0.5;exitDx=0;exitDy=0;entryX=0;entryY=0.5;entryDx=0;entryDy=0;" edge="1" parent="wW0nBViKQH1OKMizj_yf-1" source="DvAtvgP_Mp4fu1iRh_zG-4" target="DvAtvgP_Mp4fu1iRh_zG-3">
          <mxGeometry relative="1" as="geometry" />
        </mxCell>
        <mxCell id="DvAtvgP_Mp4fu1iRh_zG-11" value="" style="endArrow=classic;html=1;rounded=0;entryX=0.5;entryY=0;entryDx=0;entryDy=0;exitX=0.5;exitY=1;exitDx=0;exitDy=0;" edge="1" parent="wW0nBViKQH1OKMizj_yf-1" source="DvAtvgP_Mp4fu1iRh_zG-3" target="DvAtvgP_Mp4fu1iRh_zG-6">
          <mxGeometry width="50" height="50" relative="1" as="geometry">
            <mxPoint x="390" y="390" as="sourcePoint" />
            <mxPoint x="440" y="340" as="targetPoint" />
          </mxGeometry>
        </mxCell>
        <mxCell id="DvAtvgP_Mp4fu1iRh_zG-13" value="via HTTP API" style="endArrow=classic;html=1;rounded=0;entryX=0.5;entryY=0;entryDx=0;entryDy=0;" edge="1" parent="wW0nBViKQH1OKMizj_yf-1" source="DvAtvgP_Mp4fu1iRh_zG-6" target="wW0nBViKQH1OKMizj_yf-6">
          <mxGeometry width="50" height="50" relative="1" as="geometry">
            <mxPoint x="390" y="390" as="sourcePoint" />
            <mxPoint x="440" y="340" as="targetPoint" />
          </mxGeometry>
        </mxCell>
        <mxCell id="DvAtvgP_Mp4fu1iRh_zG-18" value="" style="endArrow=classic;html=1;rounded=0;entryX=1;entryY=0.5;entryDx=0;entryDy=0;" edge="1" parent="wW0nBViKQH1OKMizj_yf-1" target="DvAtvgP_Mp4fu1iRh_zG-6">
          <mxGeometry width="50" height="50" relative="1" as="geometry">
            <mxPoint x="580" y="380" as="sourcePoint" />
            <mxPoint x="440" y="340" as="targetPoint" />
            <Array as="points">
              <mxPoint x="550" y="380" />
              <mxPoint x="550" y="440" />
              <mxPoint x="550" y="501" />
            </Array>
          </mxGeometry>
        </mxCell>
      </root>
    </mxGraphModel>
  </diagram>
</mxfile>
